<svg width="97" height="69" viewBox="0 0 97 69" fill="none" xmlns="http://www.w3.org/2000/svg">
<path d="M75 43.6226C70.8466 43.6226 66.7865 42.346 63.333 39.9543C59.8796 37.5626 57.188 34.1631 55.5985 30.1858C54.0091 26.2086 53.5932 21.8321 54.4035 17.6098C55.2138 13.3875 57.2139 9.50915 60.1508 6.46507C63.0877 3.42099 66.8295 1.34795 70.9031 0.508088C74.9767 -0.331772 79.1991 0.0992747 83.0364 1.74672C86.8736 3.39416 90.1534 6.18401 92.4609 9.76347C94.7684 13.3429 96 17.5512 96 21.8562L96.096 24.9657C96.096 30.6825 95.0096 36.3433 92.8989 41.6249C90.7882 46.9066 87.6945 51.7056 83.7945 55.748C79.8944 59.7904 75.2644 62.997 70.1687 65.1847C65.073 67.3724 59.6115 68.4984 54.096 68.4984V56.0605C58.0374 56.0715 61.9418 55.2725 65.5834 53.7097C69.225 52.147 72.5316 49.8515 75.312 46.9559C76.3926 45.838 77.3895 44.6363 78.294 43.3614C77.2043 43.5389 76.103 43.6283 75 43.6288V43.6226ZM21 43.6226C16.8466 43.6226 12.7865 42.346 9.33303 39.9543C5.8796 37.5626 3.18798 34.1631 1.59854 30.1858C0.00909912 26.2086 -0.406771 21.8321 0.403518 17.6098C1.21381 13.3875 3.21386 9.50915 6.15077 6.46507C9.08767 3.42099 12.8295 1.34795 16.9031 0.508088C20.9767 -0.331772 25.1991 0.0992747 29.0364 1.74672C32.8736 3.39416 36.1534 6.18401 38.4609 9.76347C40.7684 13.3429 42 17.5512 42 21.8562L42.096 24.9657C42.096 36.5113 37.671 47.584 29.7945 55.748C21.918 63.9119 11.2351 68.4984 0.0960094 68.4984V56.0605C4.0374 56.0715 7.94179 55.2725 11.5834 53.7097C15.225 52.147 18.5316 49.8515 21.312 46.9559C22.3926 45.838 23.3895 44.6363 24.294 43.3614C23.2044 43.5389 22.103 43.6283 21 43.6288V43.6226Z" fill="#590093"/>
</svg>
